
<svg width="100" height="100" viewBox="0 0 100 100" fill="none" xmlns="http://www.w3.org/2000/svg">
  <rect x="20" y="15" width="50" height="70" rx="4" fill="#E3F2FD"/>
  <rect x="30" y="25" width="30" height="5" rx="2" fill="#0B5394"/>
  <rect x="30" y="35" width="30" height="3" rx="1.5" fill="#90CAF9"/>
  <rect x="30" y="42" width="30" height="3" rx="1.5" fill="#90CAF9"/>
  <rect x="30" y="49" width="20" height="3" rx="1.5" fill="#90CAF9"/>
  <rect x="30" y="65" width="30" height="10" rx="2" fill="#0B5394"/>
  <rect x="35" y="20" width="50" height="70" rx="4" fill="#BBDEFB"/>
  <rect x="45" y="30" width="30" height="5" rx="2" fill="#0B5394"/>
  <rect x="45" y="40" width="30" height="3" rx="1.5" fill="#64B5F6"/>
  <rect x="45" y="47" width="30" height="3" rx="1.5" fill="#64B5F6"/>
  <rect x="45" y="54" width="20" height="3" rx="1.5" fill="#64B5F6"/>
  <rect x="45" y="70" width="30" height="10" rx="2" fill="#0B5394"/>
</svg>
